<svg id="visual" viewBox="0 0 960 540" width="960" height="540" xmlns="http://www.w3.org/2000/svg" xmlns:xlink="http://www.w3.org/1999/xlink" version="1.1"><rect x="0" y="0" width="960" height="540" fill="#216cd9"></rect><path d="M0 489L16 479.3C32 469.7 64 450.3 96 447.3C128 444.3 160 457.7 192 462.2C224 466.7 256 462.3 288 455.5C320 448.7 352 439.3 384 439C416 438.7 448 447.3 480 445.3C512 443.3 544 430.7 576 426.5C608 422.3 640 426.7 672 436.7C704 446.7 736 462.3 768 471.8C800 481.3 832 484.7 864 481.2C896 477.7 928 467.3 944 462.2L960 457L960 541L944 541C928 541 896 541 864 541C832 541 800 541 768 541C736 541 704 541 672 541C640 541 608 541 576 541C544 541 512 541 480 541C448 541 416 541 384 541C352 541 320 541 288 541C256 541 224 541 192 541C160 541 128 541 96 541C64 541 32 541 16 541L0 541Z" fill="#FFFFFF" stroke-linecap="round" stroke-linejoin="miter"></path></svg>