<svg id="visual" viewBox="0 0 540 960" width="540" height="960" xmlns="http://www.w3.org/2000/svg" xmlns:xlink="http://www.w3.org/1999/xlink" version="1.1"><rect x="0" y="0" width="540" height="960" fill="#216cd9"></rect><path d="M0 869L9 852C18 835 36 801 54 795.8C72 790.7 90 814.3 108 822.3C126 830.3 144 822.7 162 810.5C180 798.3 198 781.7 216 781C234 780.3 252 795.7 270 792C288 788.3 306 765.7 324 758.3C342 751 360 759 378 776.8C396 794.7 414 822.3 432 839.3C450 856.3 468 862.7 486 856.7C504 850.7 522 832.3 531 823.2L540 814L540 961L531 961C522 961 504 961 486 961C468 961 450 961 432 961C414 961 396 961 378 961C360 961 342 961 324 961C306 961 288 961 270 961C252 961 234 961 216 961C198 961 180 961 162 961C144 961 126 961 108 961C90 961 72 961 54 961C36 961 18 961 9 961L0 961Z" fill="#FFFFFF" stroke-linecap="round" stroke-linejoin="miter"></path></svg>